<svg width="33" height="32" viewBox="0 0 33 32" fill="none" xmlns="http://www.w3.org/2000/svg">
<path fill-rule="evenodd" clip-rule="evenodd" d="M16.4958 20.648C14.2911 20.648 12.5105 18.8627 12.5105 16.6607C12.5105 14.4707 14.2905 12.686 16.4958 12.686C18.7012 12.686 20.4865 14.4707 20.4865 16.6607C20.4865 18.8627 18.7005 20.648 16.4958 20.648ZM16.5032 9.33334C11.0331 9.33334 7.57043 13.4027 6.16175 15.4753C5.73108 16.1147 5.72108 17.2227 6.14641 17.8633C7.52309 19.948 10.9231 24 16.5032 24C22.0765 24 25.4772 19.948 26.8533 17.8633C27.2793 17.2227 27.2673 16.1147 26.8373 15.4753C25.4286 13.4027 21.9725 9.33334 16.5032 9.33334Z" stroke="#1B0E07" stroke-width="2" stroke-linecap="round" stroke-linejoin="round"/>
</svg>
