<svg width="24" height="24" viewBox="0 0 24 24" fill="none" xmlns="http://www.w3.org/2000/svg">
<path fill-rule="evenodd" clip-rule="evenodd" d="M18.3063 5.6035C20.2589 7.55612 20.2589 10.7219 18.3063 12.6746C16.7669 14.214 14.4734 14.5397 12.6149 13.6519L10.6123 15.6536L10.8929 15.9351C11.4786 16.5209 11.4786 17.4706 10.8929 18.0564L10.6572 18.2921C10.0714 18.8779 9.12163 18.8779 8.53584 18.2921L8.2555 18.0104L7.9747 18.2921C7.38891 18.8779 6.43917 18.8779 5.85338 18.2921L5.61768 18.0564C5.03189 17.4706 5.03189 16.5209 5.61768 15.9351L10.2579 11.2949C9.37007 9.43639 9.69584 7.14291 11.2352 5.6035C13.1879 3.65088 16.3537 3.65088 18.3063 5.6035ZM15.9493 7.96052C15.2984 7.30965 14.2431 7.30965 13.5923 7.96052C12.9414 8.61139 12.9414 9.66667 13.5923 10.3175C14.2431 10.9684 15.2984 10.9684 15.9493 10.3175C16.6002 9.66667 16.6002 8.61139 15.9493 7.96052Z" stroke="#0C0C0C" stroke-width="1.5"/>
</svg>
