<svg width="102" height="44" viewBox="0 0 102 44" fill="none" xmlns="http://www.w3.org/2000/svg">
<path d="M6.69922 2.01754C5.8866 2.01754 5.22785 2.67852 5.22785 3.4939C5.22785 4.30927 5.8866 4.97026 6.69922 4.97026H21.0983C22.8829 4.97026 24.3296 6.42188 24.3296 8.21256C24.3296 10.0032 22.8829 11.4549 21.0983 11.4549H12.768C12.2128 11.4549 11.7627 11.0032 11.7627 10.4461C11.7627 9.88896 12.2128 9.43732 12.768 9.43732H21.0983C21.7724 9.43732 22.3189 8.88897 22.3189 8.21256C22.3189 7.53614 21.7724 6.98779 21.0983 6.98779H6.69922C4.77612 6.98779 3.21714 5.42352 3.21714 3.4939C3.21714 1.56427 4.77612 0 6.69922 0H10.6568C11.212 0 11.6621 0.451641 11.6621 1.00877C11.6621 1.56589 11.212 2.01754 10.6568 2.01754H6.69922Z" fill="#351303"/>
<path fill-rule="evenodd" clip-rule="evenodd" d="M1.00536 11.9035C1.5606 11.9035 2.01071 12.3551 2.01071 12.9122V29.6578C2.01071 34.0034 5.52159 37.5262 9.85249 37.5262H18.4985C22.3852 37.5262 25.536 34.3647 25.536 30.4648V16.7455L5.83106 16.7455C5.27582 16.7455 4.82571 16.2939 4.82571 15.7368C4.82571 15.1796 5.27582 14.728 5.83106 14.728L25.536 14.728V12.9122C25.536 12.3551 25.9861 11.9035 26.5414 11.9035C27.0966 11.9035 27.5467 12.3551 27.5467 12.9122V18.2472C28.2752 17.6955 28.7959 17.3508 29.9078 17.3508C31.3969 17.3508 32.5414 17.9301 33.3017 18.8537C34.0366 19.7464 34.3494 20.8809 34.3798 21.9312C34.4672 24.9528 33.2419 27.2107 31.4956 28.7278C30.101 29.9394 28.5577 30.7472 27.5194 31.1757C27.158 35.8575 23.2573 39.5437 18.4985 39.5437H9.85249C4.41111 39.5437 0 35.1176 0 29.6578V12.9122C0 12.3551 0.450113 11.9035 1.00536 11.9035ZM27.5467 28.9467V22.4968C27.5467 20.8317 28.2249 19.3684 29.9078 19.3684C30.8306 19.3684 31.394 19.7042 31.7515 20.1385C32.1343 20.6036 32.3491 21.2695 32.37 21.9898C32.4333 24.1781 31.6741 25.9041 30.1795 27.2026C29.2956 27.9705 28.3351 28.5512 27.5467 28.9467Z" fill="#351303"/>
<path d="M6.83642 29.456C6.83642 28.8989 6.38631 28.4472 5.83106 28.4472C5.27582 28.4472 4.82571 28.8989 4.82571 29.456C4.82571 32.3531 7.16629 34.7016 10.0536 34.7016H12.2653C12.8206 34.7016 13.2707 34.25 13.2707 33.6928C13.2707 33.1357 12.8206 32.6841 12.2653 32.6841H10.0536C8.27678 32.6841 6.83642 31.2388 6.83642 29.456Z" fill="#351303"/>
<path d="M12.2653 20.2762C12.8206 20.2762 13.2707 20.7279 13.2707 21.285V23.9078C13.2707 24.4649 12.8206 24.9166 12.2653 24.9166C11.7101 24.9166 11.26 24.4649 11.26 23.9078V21.285C11.26 20.7279 11.7101 20.2762 12.2653 20.2762Z" fill="#351303"/>
<path d="M21.0119 20.2762C21.5672 20.2762 22.0173 20.7279 22.0173 21.285V25.1183C22.0173 25.6754 21.5672 26.1271 21.0119 26.1271C20.4567 26.1271 20.0066 25.6754 20.0066 25.1183V21.285C20.0066 20.7279 20.4567 20.2762 21.0119 20.2762Z" fill="#351303"/>
<path d="M7.84177 41.3595C7.28653 41.3595 6.83642 41.8111 6.83642 42.3682C6.83642 42.9254 7.28653 43.377 7.84177 43.377H19.5039C20.0591 43.377 20.5093 42.9254 20.5093 42.3682C20.5093 41.8111 20.0591 41.3595 19.5039 41.3595H7.84177Z" fill="#351303"/>
<path d="M46.8295 34.6247C45.725 34.6247 44.7325 34.4326 43.8521 34.0484C42.9877 33.6482 42.3074 33.104 41.8112 32.4156C41.3149 31.7113 41.0588 30.9029 41.0428 29.9905H43.3719C43.4519 30.7749 43.7721 31.4392 44.3323 31.9834C44.9086 32.5117 45.741 32.7758 46.8295 32.7758C47.87 32.7758 48.6863 32.5197 49.2786 32.0074C49.8869 31.4792 50.191 30.8069 50.191 29.9905C50.191 29.3502 50.0149 28.83 49.6628 28.4298C49.3106 28.0296 48.8704 27.7255 48.3422 27.5174C47.8139 27.3093 47.1016 27.0852 46.2052 26.8451C45.1007 26.5569 44.2123 26.2688 43.54 25.9807C42.8837 25.6925 42.3154 25.2443 41.8352 24.6361C41.371 24.0118 41.1389 23.1794 41.1389 22.1389C41.1389 21.2265 41.371 20.4181 41.8352 19.7138C42.2994 19.0095 42.9477 18.4652 43.7801 18.0811C44.6285 17.6969 45.5969 17.5048 46.6854 17.5048C48.2541 17.5048 49.5347 17.897 50.5272 18.6813C51.5356 19.4657 52.1039 20.5062 52.232 21.8028H49.8309C49.7508 21.1625 49.4147 20.6022 48.8224 20.122C48.2301 19.6258 47.4458 19.3776 46.4693 19.3776C45.5569 19.3776 44.8126 19.6178 44.2363 20.098C43.66 20.5622 43.3719 21.2185 43.3719 22.0669C43.3719 22.6752 43.54 23.1714 43.8761 23.5556C44.2283 23.9397 44.6525 24.2359 45.1487 24.444C45.6609 24.6361 46.3733 24.8602 47.2857 25.1163C48.3902 25.4204 49.2786 25.7246 49.9509 26.0287C50.6232 26.3168 51.1995 26.773 51.6797 27.3973C52.1599 28.0056 52.4 28.838 52.4 29.8945C52.4 30.7109 52.1839 31.4792 51.7517 32.1995C51.3195 32.9199 50.6792 33.5041 49.8309 33.9523C48.9825 34.4005 47.982 34.6247 46.8295 34.6247ZM62.1465 21.0584C63.1389 21.0584 64.0353 21.2745 64.8357 21.7067C65.6361 22.1229 66.2603 22.7552 66.7085 23.6036C67.1728 24.452 67.4049 25.4845 67.4049 26.701V34.4566H65.2439V27.0132C65.2439 25.7006 64.9157 24.7001 64.2594 24.0118C63.6031 23.3075 62.7067 22.9553 61.5702 22.9553C60.4177 22.9553 59.4972 23.3155 58.8089 24.0358C58.1366 24.7561 57.8005 25.8046 57.8005 27.1812V34.4566H55.6155V16.6884H57.8005V23.1714C58.2327 22.4991 58.8249 21.9788 59.5773 21.6107C60.3456 21.2425 61.202 21.0584 62.1465 21.0584ZM76.7127 34.6727C75.4801 34.6727 74.3596 34.3925 73.3512 33.8323C72.3587 33.272 71.5743 32.4797 70.9981 31.4552C70.4378 30.4147 70.1577 29.2142 70.1577 27.8535C70.1577 26.5089 70.4458 25.3244 71.0221 24.2999C71.6144 23.2594 72.4147 22.4671 73.4232 21.9228C74.4317 21.3626 75.5602 21.0824 76.8087 21.0824C78.0573 21.0824 79.1858 21.3626 80.1943 21.9228C81.2028 22.4671 81.9951 23.2514 82.5714 24.2759C83.1637 25.3004 83.4598 26.4929 83.4598 27.8535C83.4598 29.2142 83.1557 30.4147 82.5474 31.4552C81.9551 32.4797 81.1467 33.272 80.1223 33.8323C79.0978 34.3925 77.9613 34.6727 76.7127 34.6727ZM76.7127 32.7518C77.4971 32.7518 78.2334 32.5677 78.9217 32.1995C79.61 31.8314 80.1623 31.2791 80.5785 30.5428C81.0107 29.8064 81.2268 28.91 81.2268 27.8535C81.2268 26.7971 81.0187 25.9006 80.6025 25.1643C80.1863 24.428 79.642 23.8837 78.9697 23.5316C78.2974 23.1634 77.5691 22.9793 76.7847 22.9793C75.9844 22.9793 75.248 23.1634 74.5757 23.5316C73.9194 23.8837 73.3912 24.428 72.991 25.1643C72.5908 25.9006 72.3907 26.7971 72.3907 27.8535C72.3907 28.926 72.5828 29.8304 72.967 30.5668C73.3672 31.3031 73.8954 31.8554 74.5517 32.2235C75.208 32.5757 75.9283 32.7518 76.7127 32.7518ZM88.5177 23.7236C88.9499 22.9713 89.5902 22.347 90.4386 21.8508C91.303 21.3385 92.3034 21.0824 93.4399 21.0824C94.6085 21.0824 95.665 21.3626 96.6094 21.9228C97.5698 22.4831 98.3222 23.2754 98.8664 24.2999C99.4107 25.3084 99.6828 26.4849 99.6828 27.8295C99.6828 29.1581 99.4107 30.3427 98.8664 31.3832C98.3222 32.4236 97.5698 33.232 96.6094 33.8083C95.665 34.3845 94.6085 34.6727 93.4399 34.6727C92.3194 34.6727 91.327 34.4246 90.4626 33.9283C89.6142 33.4161 88.9659 32.7838 88.5177 32.0315V40.6994H86.3327V21.2985H88.5177V23.7236ZM97.4498 27.8295C97.4498 26.8371 97.2497 25.9727 96.8495 25.2363C96.4493 24.5 95.9051 23.9397 95.2168 23.5556C94.5445 23.1714 93.8001 22.9793 92.9837 22.9793C92.1834 22.9793 91.439 23.1794 90.7507 23.5796C90.0784 23.9638 89.5342 24.532 89.118 25.2844C88.7178 26.0207 88.5177 26.8771 88.5177 27.8535C88.5177 28.846 88.7178 29.7184 89.118 30.4707C89.5342 31.2071 90.0784 31.7753 90.7507 32.1755C91.439 32.5597 92.1834 32.7518 92.9837 32.7518C93.8001 32.7518 94.5445 32.5597 95.2168 32.1755C95.9051 31.7753 96.4493 31.2071 96.8495 30.4707C97.2497 29.7184 97.4498 28.838 97.4498 27.8295Z" fill="#351303"/>
</svg>
