<svg width="102" height="45" viewBox="0 0 102 45" fill="none" xmlns="http://www.w3.org/2000/svg">
<path d="M6.69922 2.78804C5.8866 2.78804 5.22785 3.44903 5.22785 4.2644C5.22785 5.07978 5.8866 5.74077 6.69922 5.74077H21.0983C22.8829 5.74077 24.3296 7.19239 24.3296 8.98306C24.3296 10.7737 22.8829 12.2254 21.0983 12.2254H12.768C12.2128 12.2254 11.7627 11.7737 11.7627 11.2166C11.7627 10.6595 12.2128 10.2078 12.768 10.2078H21.0983C21.7724 10.2078 22.3189 9.65948 22.3189 8.98306C22.3189 8.30665 21.7724 7.7583 21.0983 7.7583H6.69922C4.77612 7.7583 3.21714 6.19403 3.21714 4.2644C3.21714 2.33478 4.77612 0.770508 6.69922 0.770508H10.6568C11.212 0.770508 11.6621 1.22215 11.6621 1.77928C11.6621 2.3364 11.212 2.78804 10.6568 2.78804H6.69922Z" fill="white"/>
<path fill-rule="evenodd" clip-rule="evenodd" d="M1.00536 12.674C1.5606 12.674 2.01071 13.1256 2.01071 13.6827V30.4283C2.01071 34.7739 5.52159 38.2967 9.85249 38.2967H18.4985C22.3852 38.2967 25.536 35.1352 25.536 31.2353V17.5161L5.83106 17.5161C5.27582 17.5161 4.82571 17.0644 4.82571 16.5073C4.82571 15.9502 5.27582 15.4985 5.83106 15.4985L25.536 15.4985V13.6827C25.536 13.1256 25.9861 12.674 26.5414 12.674C27.0966 12.674 27.5467 13.1256 27.5467 13.6827V19.0177C28.2752 18.466 28.7959 18.1213 29.9078 18.1213C31.3969 18.1213 32.5414 18.7006 33.3017 19.6242C34.0366 20.5169 34.3494 21.6514 34.3798 22.7017C34.4672 25.7233 33.2419 27.9812 31.4956 29.4983C30.101 30.7099 28.5577 31.5177 27.5194 31.9462C27.158 36.6281 23.2573 40.3142 18.4985 40.3142H9.85249C4.41111 40.3142 0 35.8881 0 30.4283V13.6827C0 13.1256 0.450113 12.674 1.00536 12.674ZM27.5467 29.7172V23.2673C27.5467 21.6022 28.2249 20.1389 29.9078 20.1389C30.8306 20.1389 31.394 20.4748 31.7515 20.909C32.1343 21.3741 32.3491 22.04 32.37 22.7603C32.4333 24.9486 31.6741 26.6746 30.1795 27.9731C29.2956 28.741 28.3351 29.3217 27.5467 29.7172Z" fill="white"/>
<path d="M6.83642 30.2265C6.83642 29.6694 6.38631 29.2178 5.83106 29.2178C5.27582 29.2178 4.82571 29.6694 4.82571 30.2265C4.82571 33.1236 7.16629 35.4721 10.0536 35.4721H12.2653C12.8206 35.4721 13.2707 35.0205 13.2707 34.4633C13.2707 33.9062 12.8206 33.4546 12.2653 33.4546H10.0536C8.27678 33.4546 6.83642 32.0093 6.83642 30.2265Z" fill="white"/>
<path d="M12.2653 21.0467C12.8206 21.0467 13.2707 21.4984 13.2707 22.0555V24.6783C13.2707 25.2354 12.8206 25.6871 12.2653 25.6871C11.7101 25.6871 11.26 25.2354 11.26 24.6783V22.0555C11.26 21.4984 11.7101 21.0467 12.2653 21.0467Z" fill="white"/>
<path d="M21.0119 21.0467C21.5672 21.0467 22.0173 21.4984 22.0173 22.0555V25.8888C22.0173 26.4459 21.5672 26.8976 21.0119 26.8976C20.4567 26.8976 20.0066 26.4459 20.0066 25.8888V22.0555C20.0066 21.4984 20.4567 21.0467 21.0119 21.0467Z" fill="white"/>
<path d="M7.84177 42.13C7.28653 42.13 6.83642 42.5816 6.83642 43.1388C6.83642 43.6959 7.28653 44.1475 7.84177 44.1475H19.5039C20.0591 44.1475 20.5093 43.6959 20.5093 43.1388C20.5093 42.5816 20.0591 42.13 19.5039 42.13H7.84177Z" fill="white"/>
<path d="M46.8291 35.3951C45.7246 35.3951 44.7322 35.203 43.8517 34.8189C42.9873 34.4187 42.307 33.8744 41.8108 33.1861C41.3146 32.4818 41.0585 31.6734 41.0425 30.761H43.3715C43.4516 31.5454 43.7717 32.2097 44.332 32.7539C44.9082 33.2822 45.7406 33.5463 46.8291 33.5463C47.8696 33.5463 48.686 33.2902 49.2782 32.7779C49.8865 32.2497 50.1907 31.5774 50.1907 30.761C50.1907 30.1207 50.0146 29.6005 49.6624 29.2003C49.3103 28.8001 48.8701 28.496 48.3418 28.2879C47.8136 28.0798 47.1012 27.8557 46.2048 27.6156C45.1003 27.3274 44.2119 27.0393 43.5396 26.7512C42.8833 26.463 42.315 26.0148 41.8348 25.4065C41.3706 24.7823 41.1385 23.9499 41.1385 22.9094C41.1385 21.997 41.3706 21.1886 41.8348 20.4843C42.299 19.78 42.9473 19.2357 43.7797 18.8515C44.6281 18.4674 45.5965 18.2753 46.685 18.2753C48.2538 18.2753 49.5344 18.6674 50.5268 19.4518C51.5353 20.2362 52.1035 21.2766 52.2316 22.5732H49.8305C49.7505 21.9329 49.4143 21.3727 48.822 20.8925C48.2298 20.3962 47.4454 20.1481 46.4689 20.1481C45.5565 20.1481 44.8122 20.3882 44.2359 20.8685C43.6597 21.3327 43.3715 21.989 43.3715 22.8374C43.3715 23.4456 43.5396 23.9419 43.8758 24.326C44.2279 24.7102 44.6521 25.0064 45.1483 25.2145C45.6606 25.4065 46.3729 25.6306 47.2853 25.8868C48.3898 26.1909 49.2782 26.495 49.9505 26.7992C50.6229 27.0873 51.1991 27.5435 51.6793 28.1678C52.1596 28.7761 52.3997 29.6085 52.3997 30.665C52.3997 31.4813 52.1836 32.2497 51.7514 32.97C51.3192 33.6903 50.6789 34.2746 49.8305 34.7228C48.9821 35.171 47.9816 35.3951 46.8291 35.3951ZM62.1461 21.8289C63.1385 21.8289 64.035 22.045 64.8353 22.4772C65.6357 22.8934 66.26 23.5257 66.7082 24.3741C67.1724 25.2225 67.4045 26.2549 67.4045 27.4715V35.2271H65.2435V27.7836C65.2435 26.471 64.9154 25.4706 64.2591 24.7823C63.6028 24.0779 62.7063 23.7258 61.5698 23.7258C60.4173 23.7258 59.4969 24.0859 58.8086 24.8063C58.1362 25.5266 57.8001 26.5751 57.8001 27.9517V35.2271H55.6151V17.4589H57.8001V23.9419C58.2323 23.2696 58.8246 22.7493 59.5769 22.3812C60.3453 22.013 61.2017 21.8289 62.1461 21.8289ZM76.7123 35.4432C75.4798 35.4432 74.3593 35.163 73.3508 34.6028C72.3583 34.0425 71.574 33.2501 70.9977 32.2257C70.4375 31.1852 70.1573 29.9846 70.1573 28.624C70.1573 27.2794 70.4455 26.0949 71.0217 25.0704C71.614 24.0299 72.4144 23.2375 73.4228 22.6933C74.4313 22.133 75.5598 21.8529 76.8084 21.8529C78.057 21.8529 79.1855 22.133 80.1939 22.6933C81.2024 23.2375 81.9948 24.0219 82.571 25.0464C83.1633 26.0708 83.4594 27.2634 83.4594 28.624C83.4594 29.9846 83.1553 31.1852 82.547 32.2257C81.9547 33.2501 81.1464 34.0425 80.1219 34.6028C79.0974 35.163 77.9609 35.4432 76.7123 35.4432ZM76.7123 33.5223C77.4967 33.5223 78.233 33.3382 78.9214 32.97C79.6097 32.6018 80.1619 32.0496 80.5781 31.3133C81.0103 30.5769 81.2264 29.6805 81.2264 28.624C81.2264 27.5675 81.0183 26.6711 80.6021 25.9348C80.1859 25.1984 79.6417 24.6542 78.9694 24.302C78.2971 23.9339 77.5687 23.7498 76.7844 23.7498C75.984 23.7498 75.2477 23.9339 74.5754 24.302C73.9191 24.6542 73.3908 25.1984 72.9906 25.9348C72.5904 26.6711 72.3904 27.5675 72.3904 28.624C72.3904 29.6965 72.5824 30.6009 72.9666 31.3373C73.3668 32.0736 73.895 32.6259 74.5513 32.994C75.2076 33.3462 75.928 33.5223 76.7123 33.5223ZM88.5173 24.4941C88.9495 23.7418 89.5898 23.1175 90.4382 22.6213C91.3026 22.109 92.3031 21.8529 93.4396 21.8529C94.6081 21.8529 95.6646 22.133 96.609 22.6933C97.5695 23.2536 98.3218 24.0459 98.8661 25.0704C99.4103 26.0788 99.6824 27.2554 99.6824 28.6C99.6824 29.9286 99.4103 31.1132 98.8661 32.1536C98.3218 33.1941 97.5695 34.0025 96.609 34.5788C95.6646 35.155 94.6081 35.4432 93.4396 35.4432C92.3191 35.4432 91.3266 35.195 90.4622 34.6988C89.6138 34.1866 88.9655 33.5543 88.5173 32.8019V41.4699H86.3323V22.069H88.5173V24.4941ZM97.4494 28.6C97.4494 27.6076 97.2493 26.7432 96.8491 26.0068C96.449 25.2705 95.9047 24.7102 95.2164 24.326C94.5441 23.9419 93.7997 23.7498 92.9834 23.7498C92.183 23.7498 91.4387 23.9499 90.7503 24.3501C90.078 24.7342 89.5338 25.3025 89.1176 26.0548C88.7174 26.7912 88.5173 27.6476 88.5173 28.624C88.5173 29.6165 88.7174 30.4889 89.1176 31.2412C89.5338 31.9776 90.078 32.5458 90.7503 32.946C91.4387 33.3302 92.183 33.5223 92.9834 33.5223C93.7997 33.5223 94.5441 33.3302 95.2164 32.946C95.9047 32.5458 96.449 31.9776 96.8491 31.2412C97.2493 30.4889 97.4494 29.6085 97.4494 28.6Z" fill="white"/>
</svg>
