<svg width="25" height="24" viewBox="0 0 25 24" fill="none" xmlns="http://www.w3.org/2000/svg">
<path fill-rule="evenodd" clip-rule="evenodd" d="M7 7.43872C7 6.75044 7.55796 6.19248 8.24624 6.19248H18.2162C18.9044 6.19248 19.4624 6.75044 19.4624 7.43872C19.4624 8.127 18.9044 8.68496 18.2162 8.68496H18.6316V17.4857C18.6316 18.5903 17.7361 19.4857 16.6316 19.4857H9.83083C8.72626 19.4857 7.83083 18.5903 7.83083 17.4857V8.68496H8.24624C7.55796 8.68496 7 8.127 7 7.43872Z" stroke="#F32929" stroke-width="1.5" stroke-linecap="round" stroke-linejoin="round"/>
<path fill-rule="evenodd" clip-rule="evenodd" d="M11.1543 6.19248H15.3084V5.2C15.3084 4.37157 14.6369 3.7 13.8084 3.7H12.6543C11.8259 3.7 11.1543 4.37157 11.1543 5.2V6.19248Z" stroke="#F32929" stroke-width="1.5" stroke-linecap="round" stroke-linejoin="round"/>
<path d="M15.7232 11.5929V16.5778M10.7383 11.5929V16.5778V11.5929ZM13.2308 11.5929V16.5778V11.5929Z" stroke="#F32929" stroke-width="1.5" stroke-linecap="round" stroke-linejoin="round"/>
</svg>
